<svg xmlns="http://www.w3.org/2000/svg" width="180" height="180" viewBox="0 0 180 180" role="img" aria-labelledby="title desc">
  <title id="title">SDG 15 Life on Land</title>
  <desc id="desc">Green tile for Sustainable Development Goal 15.</desc>
  <rect width="180" height="180" rx="14" fill="#56c02b"/>
  <text x="18" y="45" fill="#fff" font-family="Arial, Helvetica, sans-serif" font-size="34" font-weight="700">15</text>
  <text x="72" y="29" fill="#fff" font-family="Arial, Helvetica, sans-serif" font-size="13" font-weight="700">LIFE</text>
  <text x="72" y="47" fill="#fff" font-family="Arial, Helvetica, sans-serif" font-size="13" font-weight="700">ON LAND</text>
  <path d="M70 125v35M50 160h40M42 118c-13 0-23-10-23-23s10-23 23-23c6-15 20-25 37-25 22 0 40 18 40 40 14 2 24 14 24 28 0 16-13 29-29 29H42z" fill="#fff"/>
  <path d="M116 88c13-10 26-10 39 0M125 105c10-7 20-7 30 0" fill="none" stroke="#fff" stroke-width="6" stroke-linecap="round"/>
</svg>
